<?xml version="1.0" encoding="UTF-8"?>
<svg version="1.1" xmlns="http://www.w3.org/2000/svg" width="1024" height="1024">
<path d="M0 0 C337.92 0 675.84 0 1024 0 C1024 337.92 1024 675.84 1024 1024 C686.08 1024 348.16 1024 0 1024 C0 686.08 0 348.16 0 0 Z " fill="#FEFEFE" transform="translate(0,0)"/>
<path d="M0 0 C1.3590806 0.5482706 2.71852724 1.09563458 4.07830811 1.64216614 C7.75946612 3.12426864 11.43596267 4.6176216 15.11172104 6.11305618 C18.97199247 7.68142499 22.83621884 9.23997613 26.70043945 10.79858398 C27.48457309 11.1148685 28.26870672 11.43115301 29.07660198 11.7570219 C30.6819899 12.40453468 32.2873949 13.05200512 33.89281654 13.69943428 C36.35389899 14.69241681 38.81445319 15.68669976 41.27494812 16.68113708 C52.38427881 21.16799462 63.51523626 25.59755487 74.66256523 29.98911667 C77.21652576 30.99533495 79.77007469 32.00259075 82.32350159 33.01016235 C92.17812309 36.89861972 92.17812309 36.89861972 102.0385437 40.77233887 C105.87350416 42.27552226 109.70555748 43.7858899 113.53559113 45.30158043 C114.94501881 45.85772291 116.35554893 46.41108064 117.7672348 46.96146584 C119.69497854 47.71334811 121.61870262 48.47472239 123.54174805 49.23852539 C124.62078903 49.66259171 125.69983002 50.08665802 126.81156921 50.52357483 C129.30634494 51.71729691 130.81802171 52.59995381 132.47265625 54.796875 C132.453125 57.3203125 132.453125 57.3203125 131.47265625 59.796875 C129.3984375 61.2734375 129.3984375 61.2734375 126.78515625 62.421875 C125.51091797 62.99808594 125.51091797 62.99808594 124.2109375 63.5859375 C122.85548828 64.18535156 122.85548828 64.18535156 121.47265625 64.796875 C119.47016496 65.79187683 117.46985613 66.79129425 115.47265625 67.796875 C115.4586377 69.71149536 115.4586377 69.71149536 115.44433594 71.66479492 C115.40441286 76.40814902 115.33864722 81.15085612 115.26513672 85.89379883 C115.23694061 87.94514646 115.21571932 89.99660247 115.20166016 92.0480957 C115.18021201 95.00007554 115.13355177 97.9507543 115.08203125 100.90234375 C115.08080261 101.81710983 115.07957397 102.73187592 115.07830811 103.67436218 C114.95553508 109.03213807 114.44475375 111.85974652 110.47265625 115.796875 C108.62950515 119.48317721 108.9729234 123.77338487 109.47265625 127.796875 C110.15328125 128.6425 110.83390625 129.488125 111.53515625 130.359375 C113.47265625 132.796875 113.47265625 132.796875 113.2890625 136.40234375 C112.17849794 144.58792079 110.4851817 152.70841567 108.90576172 160.81494141 C108.4795933 163.01054207 108.06515248 165.20810402 107.65234375 167.40625 C107.51907684 168.0740448 107.38580994 168.7418396 107.24850464 169.42987061 C106.50257444 173.45538906 106.63736393 175.6204134 107.47265625 179.796875 C117.04265625 179.796875 126.61265625 179.796875 136.47265625 179.796875 C133.51133592 160.84991219 133.51133592 160.84991219 129.98828125 142.00390625 C128.68586872 133.90329497 128.68586872 133.90329497 131.47265625 129.984375 C134.09189742 125.80995939 134.34210989 122.60899958 133.47265625 117.796875 C131.46764745 113.9942721 130.04579363 112.17896659 126.47265625 109.796875 C126.13208008 107.36669922 126.13208008 107.36669922 126.1796875 104.3515625 C126.18935547 103.27519531 126.19902344 102.19882813 126.20898438 101.08984375 C126.23412109 99.96191406 126.25925781 98.83398438 126.28515625 97.671875 C126.29869141 96.53621094 126.31222656 95.40054688 126.32617188 94.23046875 C126.36161306 91.41880113 126.41102108 88.60807083 126.47265625 85.796875 C158.40037046 85.18499252 185.59581274 87.38654358 210.1015625 110.40234375 C227.3834261 127.85503302 235.80446987 149.30343612 235.74008179 173.76098633 C235.7446129 175.03498228 235.74914401 176.30897823 235.75381243 177.62158012 C235.76596954 181.13295466 235.76579063 184.64423341 235.76342368 188.15562415 C235.76301364 191.95270721 235.7740726 195.74976032 235.78353882 199.54682922 C235.80011101 206.97775732 235.8056467 214.40865368 235.80676357 221.83959872 C235.80771609 227.88564443 235.81183652 233.93167974 235.81816483 239.97772217 C235.8357689 257.14811043 235.8450053 274.31847375 235.84350388 291.4888711 C235.84342397 292.41341766 235.84334405 293.33796422 235.84326172 294.29052734 C235.84317996 295.21621316 235.8430982 296.14189898 235.84301396 297.09563589 C235.84220186 312.08199135 235.86132238 327.06824611 235.88953845 342.05457246 C235.91833265 357.47061228 235.93207508 372.88660311 235.9303509 388.30267048 C235.92968913 396.94617785 235.93508728 405.58957972 235.956707 414.23306274 C235.97500531 421.5954642 235.9791959 428.95771237 235.96568815 436.32012683 C235.95920106 440.06927691 235.95888468 443.81813367 235.97639465 447.56725502 C236.11314384 478.86155271 231.36791641 504.70458614 209.15234375 528.203125 C197.14269511 539.82762456 181.78132987 548.07023239 165.47265625 551.796875 C164.75425568 551.9630986 164.0358551 552.1293222 163.29568481 552.30058289 C153.67213787 554.21710235 144.0668728 554.09279258 134.29741287 554.10183525 C131.07481328 554.10553992 127.85251034 554.12237697 124.62997437 554.14259338 C115.47570338 554.19761724 106.32139042 554.22862904 97.16699219 554.25317383 C91.54445117 554.26914827 85.92212368 554.29946409 80.29969406 554.33793831 C78.17331603 554.34949516 76.0468997 554.35551783 73.92049026 554.35561943 C41.34886921 554.35774053 15.61418087 565.84259819 -10.52734375 584.796875 C-14.81089921 587.65257864 -18.50018934 587.5678304 -23.52734375 586.796875 C-26.54350118 585.41261456 -28.95896443 583.50541684 -31.52734375 581.421875 C-32.99857192 580.31061062 -34.47531771 579.20661966 -35.95703125 578.109375 C-36.70823242 577.5525 -37.45943359 576.995625 -38.23339844 576.421875 C-57.44179402 562.81490597 -79.81077309 554.66698689 -103.37719727 554.63916016 C-104.32962814 554.63407944 -105.28205902 554.62899872 -106.26335144 554.62376404 C-108.32032433 554.61311264 -110.37730843 554.60447223 -112.43429756 554.59764481 C-115.70299763 554.58576764 -118.97157073 554.56629113 -122.24021912 554.54452515 C-131.5303009 554.48321632 -140.82036859 554.42901381 -150.1105957 554.39550781 C-155.80635112 554.37442026 -161.50187219 554.33900608 -167.1974926 554.29475021 C-169.35374103 554.28070194 -171.51003089 554.27189339 -173.66632271 554.26869583 C-200.44946972 554.22478525 -222.77868369 548.89754173 -243.52734375 530.796875 C-244.44773437 530.00216797 -244.44773437 530.00216797 -245.38671875 529.19140625 C-262.07504045 513.68963953 -271.40797471 489.96302058 -272.71449149 467.59247983 C-272.78510215 464.27182681 -272.79894601 460.95628679 -272.78804016 457.63490295 C-272.79186571 456.37593923 -272.79569126 455.1169755 -272.79963273 453.81986135 C-272.80981983 450.36454462 -272.80775496 446.90933271 -272.80345213 443.45400774 C-272.80096788 439.71227278 -272.81001992 435.97056196 -272.81748962 432.22883606 C-272.83019108 424.91395867 -272.83203608 417.59911806 -272.82968936 410.28423149 C-272.82790118 404.33500087 -272.82966653 398.38578135 -272.8339138 392.43655205 C-272.83450899 391.58754428 -272.83510418 390.7385365 -272.83571741 389.86380122 C-272.83692924 388.1386654 -272.83814338 386.41352958 -272.83935978 384.68839376 C-272.85021746 368.53744706 -272.84808105 352.38652127 -272.84197494 336.2355734 C-272.83680554 321.48275153 -272.84806498 306.72999568 -272.86707316 291.97718687 C-272.88647629 276.80063492 -272.89470333 261.62411418 -272.8909499 246.44754976 C-272.88904185 237.93837493 -272.8914869 229.4292563 -272.90566444 220.92009163 C-272.9176107 213.67734026 -272.91894677 206.43467971 -272.90687428 199.19192702 C-272.90100871 195.50203272 -272.89982131 191.81230427 -272.91187668 188.12242126 C-272.92483247 184.11009465 -272.91421634 180.09815831 -272.90156555 176.08583069 C-272.90893984 174.93706595 -272.91631412 173.78830121 -272.92391187 172.60472542 C-272.76571693 148.61729044 -262.46313686 125.6497579 -245.52734375 108.796875 C-233.08208101 97.15570554 -218.04978603 90.35896061 -201.52734375 86.796875 C-200.45242424 86.53149681 -200.45242424 86.53149681 -199.35578918 86.26075745 C-195.58832658 85.64287041 -191.87088946 85.66594592 -188.06518555 85.68334961 C-186.80587975 85.68313057 -186.80587975 85.68313057 -185.52113342 85.6829071 C-182.75624983 85.68360174 -179.99143427 85.69137312 -177.2265625 85.69921875 C-175.3055678 85.70108452 -173.38457262 85.70250768 -171.46357727 85.70350647 C-166.41493408 85.70731909 -161.36631979 85.71713867 -156.31768799 85.72821045 C-151.16296784 85.73845155 -146.00824302 85.74300987 -140.85351562 85.74804688 C-130.74477899 85.75876206 -120.63606378 85.77582342 -110.52734375 85.796875 C-110.52734375 84.806875 -110.52734375 83.816875 -110.52734375 82.796875 C-111.17646729 82.69721436 -111.82559082 82.59755371 -112.49438477 82.49487305 C-116.50494616 81.57189188 -120.22322815 80.11640473 -124.0546875 78.62890625 C-124.88005508 78.31161057 -125.70542267 77.99431488 -126.55580139 77.66740417 C-128.30397679 76.99430985 -130.05139258 76.31923974 -131.7980957 75.64233398 C-134.42274031 74.62568367 -137.04999322 73.6160373 -139.67773438 72.60742188 C-167.38868948 61.93552927 -167.38868948 61.93552927 -169.52734375 59.796875 C-169.56815158 57.79729136 -169.56988731 55.79642246 -169.52734375 53.796875 C-164.02379224 50.95571667 -158.5086483 48.50428242 -152.7265625 46.29296875 C-151.90116974 45.97338699 -151.07577698 45.65380524 -150.22537231 45.32453918 C-148.46625652 44.64361671 -146.70651575 43.96430689 -144.94619751 43.28649902 C-140.31083509 41.50094629 -135.68074093 39.70185067 -131.05078125 37.90234375 C-129.67739342 37.36880783 -129.67739342 37.36880783 -128.27626038 36.82449341 C-119.85521033 33.54713794 -111.48347238 30.15829316 -103.12402344 26.72680664 C-94.04587059 23.00060604 -84.94174088 19.3427552 -75.8190918 15.72680664 C-68.99616057 13.01729153 -62.19955584 10.25375383 -55.42793274 7.41809082 C-51.61774253 5.82416556 -47.80194111 4.24390899 -43.98587036 2.66412354 C-42.1096261 1.88294279 -40.2360902 1.09522234 -38.365448 0.30072021 C-35.73075253 -0.81759803 -33.08745121 -1.91276759 -30.44140625 -3.00390625 C-29.6592424 -3.34282394 -28.87707855 -3.68174164 -28.07121277 -4.03092957 C-17.77494352 -8.20919542 -9.7470176 -3.99263679 0 0 Z " fill="#11538B" transform="translate(530.52734375,86.203125)"/>
<path d="M0 0 C1.09649872 -0.00953201 1.09649872 -0.00953201 2.21514893 -0.01925659 C16.61087815 -0.09705714 30.52358812 1.86424711 44.3125 6.125 C45.13862793 6.37773682 45.96475586 6.63047363 46.81591797 6.89086914 C59.73597624 11.00426951 73.58232651 16.70732651 83.3125 26.4375 C83.63134766 28.40869141 83.63134766 28.40869141 83.7265625 30.7890625 C83.76523437 31.63984375 83.80390625 32.490625 83.84375 33.3671875 C83.89015625 34.70136719 83.89015625 34.70136719 83.9375 36.0625 C83.97617187 36.9596875 84.01484375 37.856875 84.0546875 38.78125 C84.14909357 40.9997927 84.23466748 43.21832403 84.3125 45.4375 C84.9725 45.1075 85.6325 44.7775 86.3125 44.4375 C89.69713626 44.02473948 92.93436436 43.94633327 96.3125 44.4375 C100.15656772 47.81277897 101.09035193 51.05213957 101.55078125 55.99609375 C101.87064743 68.40353442 98.13200668 82.07065764 89.51171875 91.3828125 C87.20248268 93.42997253 85.19606822 95.11928003 82.2734375 96.171875 C79.22067574 98.14218339 78.76055397 100.75283046 77.5625 104.125 C68.5916335 127.99535583 54.17148827 147.04376978 31.3046875 159.01171875 C13.59677131 167.04541914 -6.37172663 167.66602638 -24.6875 161.4375 C-49.8783389 151.65705318 -64.94253314 131.41534099 -75.6875 107.4375 C-76.37254121 105.54822844 -77.04263089 103.65335816 -77.6875 101.75 C-79.36566076 97.29215447 -81.4930987 96.00261522 -85.59765625 93.82421875 C-93.79867281 88.38242272 -97.61072122 77.06810087 -99.9375 67.9375 C-101.45076363 60.22121881 -101.60121444 53.39521456 -97.6875 46.4375 C-94.66205666 44.42053778 -94.07682618 44.17938904 -90.6875 44.25 C-90.006875 44.25644531 -89.32625 44.26289063 -88.625 44.26953125 C-86.6875 44.4375 -86.6875 44.4375 -83.6875 45.4375 C-83.69652344 44.13554687 -83.70554687 42.83359375 -83.71484375 41.4921875 C-83.68669278 39.76559477 -83.65664465 38.03903224 -83.625 36.3125 C-83.63595703 35.4565625 -83.64691406 34.600625 -83.65820312 33.71875 C-83.56368383 30.20803321 -83.48969115 27.50510927 -81.33496094 24.63745117 C-79.5368474 23.03656155 -77.71988628 21.72660932 -75.6875 20.4375 C-75.08381592 20.045625 -74.48013184 19.65375 -73.8581543 19.25 C-62.58168798 12.3595764 -50.34262968 8.02451689 -37.6875 4.4375 C-36.53967041 4.0986377 -36.53967041 4.0986377 -35.36865234 3.75292969 C-23.69298505 0.42724191 -12.05589754 0.05344916 0 0 Z " fill="#FEFEFE" transform="translate(511.6875,194.5625)"/>
<path d="M0 0 C0.49028687 1.4708606 0.49028687 1.4708606 0.99047852 2.97143555 C1.20836029 3.6250708 1.42624207 4.27870605 1.65072632 4.95214844 C2.14369091 6.43106286 2.63663044 7.90998563 3.12954712 9.38891602 C4.49179234 13.47602321 5.85448458 17.56298044 7.21801758 21.6496582 C9.59459599 28.77386374 11.97024164 35.89824358 14.3203125 43.03125 C14.64314209 44.00876221 14.96597168 44.98627441 15.29858398 45.9934082 C15.87868299 47.75154951 16.45642946 49.51046928 17.03149414 51.27026367 C18.00543176 54.91926359 18.00543176 54.91926359 20 58 C22.83901468 58.4649739 22.83901468 58.4649739 26 58 C28.56901312 56.0826609 28.56901312 56.0826609 30.8125 53.4375 C35.21631647 48.73965026 39.8048628 44.78968945 45 41 C45.556875 41.70125 46.11375 42.4025 46.6875 43.125 C48.91544943 46.0926537 48.91544943 46.0926537 51.875 48.375 C53.89359358 50.79607389 54.00017527 51.97613398 53.9765625 55.19140625 C53.47028603 59.17107129 52.79764565 63.07034013 52 67 C51.79648926 68.02746338 51.79648926 68.02746338 51.58886719 69.07568359 C50.9468194 72.30967372 50.2858162 75.53559868 49.5859375 78.7578125 C49.04637689 81.74338121 48.65809024 83.99772022 49 87 C50.71782367 89.39031914 50.71782367 89.39031914 53.12109375 91.57421875 C54.40016602 92.82235352 54.40016602 92.82235352 55.70507812 94.09570312 C56.60677734 94.95099609 57.50847656 95.80628906 58.4375 96.6875 C60.20887257 98.3978346 61.97849639 100.10998282 63.74609375 101.82421875 C64.53685303 102.57791748 65.3276123 103.33161621 66.14233398 104.1081543 C68 106 68 106 69 108 C73.36789814 106.38032485 75.87913583 103.08708894 78.875 99.6875 C79.88935737 98.54213228 80.90756872 97.40016563 81.9296875 96.26171875 C82.42952148 95.70274902 82.92935547 95.1437793 83.44433594 94.56787109 C84.99117238 93.00889689 86.58895985 91.84025614 88.3828125 90.58203125 C91.32970571 88.18951991 91.32970571 88.18951991 91.53515625 84.484375 C90.98737552 77.51856635 89.18616923 70.65517439 87.68945312 63.84765625 C87.46064453 62.76871094 87.23183594 61.68976563 86.99609375 60.578125 C86.78138428 59.60262695 86.5666748 58.62712891 86.34545898 57.62207031 C85.67223726 52.51224604 87.61462725 49.82342416 90.5625 45.75 C91.20316406 44.85796875 91.84382812 43.9659375 92.50390625 43.046875 C92.99761719 42.37140625 93.49132812 41.6959375 94 41 C97.99813924 43.82221594 101.73844288 46.69520654 105.25 50.10546875 C105.8169458 50.65235352 106.3838916 51.19923828 106.96801758 51.76269531 C108.1053381 52.87046456 109.23051747 53.99085074 110.3425293 55.12402344 C113.41727087 58.17741508 113.41727087 58.17741508 117.49780273 59.10839844 C120.3322834 58.16366307 120.3322834 58.16366307 121.64990234 54.83911133 C122.1500315 53.42750211 122.62712972 52.00760663 123.0859375 50.58203125 C123.34886093 49.82066864 123.61178436 49.05930603 123.88267517 48.27487183 C124.73368173 45.79377994 125.55458341 43.30385624 126.375 40.8125 C126.94914969 39.1183482 127.5249172 37.42474384 128.10229492 35.73168945 C129.76542145 30.83103822 131.3896818 25.91822499 133 21 C133.32952667 19.99543762 133.32952667 19.99543762 133.66571045 18.97058105 C135.83986865 12.3326778 137.95681835 5.67934655 140 -1 C147.66165587 -0.46701524 154.47413594 1.9649128 161.6875 4.5 C162.32528381 4.72242371 162.96306763 4.94484741 163.62017822 5.17401123 C193.30344118 15.54549514 224.38041239 27.16903393 239.12890625 57.10205078 C246.22000202 72.55221292 247.55840318 90.33876663 250 107 C250.28472168 108.93045166 250.28472168 108.93045166 250.57519531 110.89990234 C251.61060869 117.95467598 252.61565662 125.01316451 253.59326172 132.07617188 C253.95144406 134.65095682 254.31903285 137.22411329 254.69140625 139.796875 C255.55750486 145.92618824 256.25273238 151.80805679 256 158 C255.50371094 157.62488281 255.00742187 157.24976563 254.49609375 156.86328125 C253.06774318 155.78727522 251.63372353 154.71876965 250.1953125 153.65625 C248.89079868 152.67206164 247.60539936 151.66015256 246.3671875 150.59375 C240.40628201 145.68124497 236.65381493 145.99703421 228 144 C227.67 123.21 227.34 102.42 227 81 C223.52630934 79.26315467 221.92380063 78.69915888 218.25 78.375 C217.45078125 78.30023438 216.6515625 78.22546875 215.828125 78.1484375 C214.92320312 78.07496094 214.92320312 78.07496094 214 78 C213.93941406 77.09636719 213.87882812 76.19273437 213.81640625 75.26171875 C213.69072266 73.49248047 213.69072266 73.49248047 213.5625 71.6875 C213.48128906 70.51574219 213.40007812 69.34398437 213.31640625 68.13671875 C213.1132629 64.97409042 213.1132629 64.97409042 212 62 C206.57180093 61.82365514 201.68666971 62.45753493 196.375 63.5390625 C195.55881699 63.70036148 194.74263397 63.86166046 193.90171814 64.02784729 C191.26610082 64.55208325 188.63294203 65.08749964 186 65.625 C185.10250031 65.80640533 184.20500061 65.98781067 183.28030396 66.17471313 C169.39556503 68.98635066 155.59302442 71.97862044 142 76 C141.28183105 76.21221191 140.56366211 76.42442383 139.82373047 76.64306641 C130.86256989 79.34510378 122.3722 82.8139 114 87 C112.906875 87.5465625 111.81375 88.093125 110.6875 88.65625 C96.76179876 95.8818497 78.28407342 107.43185316 71 122 C70.34 122 69.68 122 69 122 C67.58984375 120.34765625 67.58984375 120.34765625 65.9375 118.0625 C38.6585749 82.37721227 -9.44735375 72.64281391 -51.125 64.5 C-51.78611786 64.36994568 -52.44723572 64.23989136 -53.12838745 64.105896 C-59.15612009 62.93032898 -64.83908661 61.84785022 -71 62 C-72.64800856 65.66447432 -73.33580973 68.81203466 -73.625 72.8125 C-73.69976562 73.78832031 -73.77453125 74.76414062 -73.8515625 75.76953125 C-73.90054688 76.50558594 -73.94953125 77.24164063 -74 78 C-74.68707031 78.04898438 -75.37414062 78.09796875 -76.08203125 78.1484375 C-77.43361328 78.26058594 -77.43361328 78.26058594 -78.8125 78.375 C-80.15248047 78.47941406 -80.15248047 78.47941406 -81.51953125 78.5859375 C-84.24398499 78.86645036 -84.24398499 78.86645036 -87 81 C-87.47863357 83.74522548 -87.47863357 83.74522548 -87.43237305 87.01025391 C-87.45216721 88.27141022 -87.47196136 89.53256653 -87.49235535 90.8319397 C-87.49912564 92.21347912 -87.50557245 93.59502016 -87.51171875 94.9765625 C-87.52855858 96.38619564 -87.54670787 97.7958137 -87.56611633 99.20541382 C-87.61369879 102.91747322 -87.64345435 106.62947152 -87.66955566 110.34173584 C-87.69931995 114.1289884 -87.74586431 117.91603015 -87.79101562 121.703125 C-87.87714232 129.13531226 -87.94444544 136.5675147 -88 144 C-88.75907654 144.12932922 -89.51815308 144.25865845 -90.30023193 144.39190674 C-91.29395813 144.56582947 -92.28768433 144.7397522 -93.31152344 144.91894531 C-94.29747498 145.08952454 -95.28342651 145.26010376 -96.29925537 145.43585205 C-99.35454698 146.07405993 -101.63526465 147.04950778 -104.25 148.75 C-105.05695313 149.27335938 -105.86390625 149.79671875 -106.6953125 150.3359375 C-109.98688863 152.71256704 -113.00182003 155.26253134 -116 158 C-116.15752938 151.11561218 -115.56988036 144.58567624 -114.609375 137.7734375 C-114.39054657 136.17636459 -114.39054657 136.17636459 -114.16729736 134.54702759 C-113.85744762 132.29592257 -113.54462661 130.04522474 -113.22900391 127.79492188 C-112.75834694 124.43459423 -112.29829984 121.07294883 -111.83984375 117.7109375 C-110.35616538 106.93477595 -108.76645959 96.18105346 -106.94140625 85.45703125 C-106.78875305 84.54307587 -106.63609985 83.62912048 -106.4788208 82.68746948 C-102.66040993 60.84194302 -93.34799327 41.85580108 -75.25 28.4375 C-58.33192903 17.42385568 -39.2554722 10.49274967 -20.22509766 4.09423828 C-18.03422083 3.35089915 -15.85165981 2.58268254 -13.67724609 1.79248047 C-12.62230957 1.41623535 -11.56737305 1.03999023 -10.48046875 0.65234375 C-9.54485107 0.31066162 -8.6092334 -0.03102051 -7.64526367 -0.38305664 C-4.71812746 -1.06573991 -2.86925406 -0.80230019 0 0 Z " fill="#FDFDFE" transform="translate(442,378)"/>
<path d="M0 0 C0 19.14 0 38.28 0 58 C-27.77777778 65.77777778 -27.77777778 65.77777778 -37.890625 68.56640625 C-42.3306857 70.61351966 -44.79366821 73.58733643 -47 78 C-47.12318886 79.91372461 -47.17557433 81.83235166 -47.1875 83.75 C-47.20167969 84.77609375 -47.21585938 85.8021875 -47.23046875 86.859375 C-47.14025831 89.99499931 -47.14025831 89.99499931 -46.01171875 92.7734375 C-44.40140673 97.9090272 -44.64146278 103.12983113 -44.609375 108.48046875 C-44.46217163 113.86974784 -43.56827745 117.41760363 -40.93115234 122.10595703 C-39.44152654 125.13598246 -39.2801039 128.1667636 -39 131.5 C-38.32295367 137.61781502 -37.18274065 141.76387828 -34 147 C-33.67 147.66 -33.34 148.32 -33 149 C-33.59611084 149.05945801 -34.19222168 149.11891602 -34.80639648 149.18017578 C-69.33894832 152.75012831 -102.29110904 162.08616564 -132.19454956 180.10447693 C-133.54460492 180.91716364 -133.54460492 180.91716364 -134.92193413 181.74626827 C-135.60769587 182.15999974 -136.2934576 182.57373121 -137 183 C-137.16376817 166.07527864 -137.28708086 149.15080572 -137.3626852 132.22547245 C-137.39872814 124.36610943 -137.44783719 116.50723969 -137.52807617 108.64819336 C-137.59800701 101.79549663 -137.64304521 94.94315724 -137.65861946 88.09011358 C-137.66771894 84.4637043 -137.68899067 80.83831699 -137.7401104 77.2122364 C-137.79681628 73.15674296 -137.79791915 69.10300809 -137.79467773 65.04711914 C-137.81984467 63.85452988 -137.8450116 62.66194061 -137.87094116 61.43321228 C-137.79963258 53.17328285 -135.7369949 48.87457965 -130 43 C-129.16827853 42.06531938 -129.16827853 42.06531938 -128.3197546 41.11175632 C-101.70364774 11.41904688 -51.88658663 5.57522449 -15 1 C-14.14567383 0.89252441 -13.29134766 0.78504883 -12.41113281 0.67431641 C-8.17948892 0.16853169 -4.31533758 0 0 0 Z " fill="#FEFEFE" transform="translate(656,470)"/>
<path d="M0 0 C10.58828687 0.50786714 20.95793283 1.5114475 31.4375 3.1875 C32.46407211 3.35031464 32.46407211 3.35031464 33.51138306 3.51641846 C64.58883921 8.48180908 101.37788856 15.4900407 125 38 C126.22783203 39.16402344 126.22783203 39.16402344 127.48046875 40.3515625 C136.77179601 49.42131598 136.77179601 49.42131598 137.36914349 53.55368423 C137.36637811 54.52341045 137.36361273 55.49313667 137.36076355 56.49224854 C137.36694954 58.16649902 137.36694954 58.16649902 137.3732605 59.87457275 C137.36247467 61.09448914 137.35168884 62.31440552 137.34057617 63.57128906 C137.34101425 64.85934448 137.34145233 66.1473999 137.34190369 67.4744873 C137.34276432 71.00318923 137.32512777 74.53158513 137.30418181 78.06021595 C137.28542629 81.74909221 137.28366546 85.43797551 137.28010559 89.12689209 C137.2707818 96.11085528 137.24616357 103.09467756 137.21605712 110.07857871 C137.18252345 118.03013269 137.16602971 125.98169341 137.15097082 133.9333005 C137.11961425 150.28894948 137.06684734 166.64445676 137 183 C136.05504166 182.45662491 135.11008331 181.91324982 134.13648987 181.35340881 C132.87561415 180.63015868 131.61470218 179.90697173 130.35375977 179.18383789 C129.73345131 178.82692116 129.11314285 178.47000443 128.47403717 178.10227203 C98.13715803 160.72021837 66.58638073 152.4846755 32 149 C32.66 148.67 33.32 148.34 34 148 C35.04415562 146.33588323 35.04415562 146.33588323 36 144 C36.7734375 142.2365625 36.7734375 142.2365625 37.5625 140.4375 C38.82628409 137.07783636 39.22910134 134.07751033 39.4375 130.5 C39.73718413 125.90271789 40.73727551 122.71191706 43.0625 118.75390625 C45.88085109 113.48124109 45.30720807 107.65433871 44.3125 101.9375 C43.95890923 97.48225633 44.7687534 95.77595579 47 92 C48.90016307 86.81773707 48.70197065 81.57943397 46.5 76.625 C46.005 75.75875 45.51 74.8925 45 74 C45 73.34 45 72.68 45 72 C37.79849431 68.15583962 29.52384282 66.4119051 21.69140625 64.25390625 C20.57209717 63.94477295 19.45278809 63.63563965 18.29956055 63.31713867 C16.03293208 62.69356134 13.76487421 62.07515457 11.49536133 61.4621582 C10.44243896 61.17300537 9.3895166 60.88385254 8.3046875 60.5859375 C7.35577637 60.3286084 6.40686523 60.0712793 5.42919922 59.80615234 C3 59 3 59 0 57 C-0.36076355 54.59555054 -0.36076355 54.59555054 -0.34057617 51.54052734 C-0.34034958 50.39949554 -0.34012299 49.25846375 -0.33988953 48.08285522 C-0.32440567 46.84637238 -0.30892181 45.60988953 -0.29296875 44.3359375 C-0.28872391 43.07359283 -0.28447906 41.81124817 -0.28010559 40.51065063 C-0.26613137 37.15338649 -0.23917302 33.79673068 -0.20599365 30.43963623 C-0.17531352 27.01449852 -0.1616047 23.58929799 -0.14648438 20.1640625 C-0.11334641 13.4425395 -0.06309539 6.72130489 0 0 Z " fill="#FEFEFE" transform="translate(368,470)"/>
<path d="M0 0 C58.52815013 0 58.52815013 0 68.54296875 9.45703125 C74.89395506 16.15300941 77.22121287 23.28398919 77.5 32.4375 C77.26387306 40.49838532 75.6260959 47.77301952 70.8125 54.375 C67.24010144 57.70923866 62.1307391 62 57 62 C57.54785156 62.78117188 58.09570312 63.56234375 58.66015625 64.3671875 C64.56654035 72.93970068 69.91712171 81.80448715 75.125 90.8125 C75.46604767 91.399245 75.80709534 91.98598999 76.15847778 92.59051514 C77.13427772 94.27218727 78.10245272 95.95827678 79.0703125 97.64453125 C79.63508301 98.62784424 80.19985352 99.61115723 80.78173828 100.62426758 C82 103 82 103 82 105 C74.72343058 106.49081421 67.12175789 107.57943745 60 105 C53.05403417 99.05002139 49.12988706 90.00009083 45 82 C43.38264101 78.99419165 41.69121371 76.05264171 39.9375 73.125 C39.63489258 72.50810303 39.33228516 71.89120605 39.02050781 71.25561523 C37.9398329 69.21109128 37.9398329 69.21109128 35 67 C28.07 66.505 28.07 66.505 21 66 C21 78.87 21 91.74 21 105 C14.07 105 7.14 105 0 105 C0 70.35 0 35.7 0 0 Z " fill="#020203" transform="translate(526,830)"/>
<path d="M0 0 C-1.16651426 5.92863717 -2.75519358 11.38798394 -5 17 C-8.75037843 15.81566997 -12.37103613 14.4450001 -16 12.9375 C-19.70711044 11.45355252 -22.99152143 10.33403988 -27 10 C-27.72574219 9.93683594 -28.45148438 9.87367188 -29.19921875 9.80859375 C-37.50537 9.40436975 -45.25336505 11.53095565 -51.875 16.6875 C-58.47801336 22.97382207 -61.68395528 31.32464367 -62.18359375 40.296875 C-62.37771108 50.93907238 -61.65227912 61.58885007 -54.3125 69.9140625 C-46.57891543 77.24225755 -38.79070838 79.46839683 -28.2734375 79.3359375 C-24.16487555 78.99270778 -24.16487555 78.99270778 -17 77 C-16.67 69.74 -16.34 62.48 -16 55 C-21.94 55 -27.88 55 -34 55 C-34 49.39 -34 43.78 -34 38 C-21.46 38 -8.92 38 4 38 C4.22989324 45.15734291 4.428761 52.30186343 4.54931641 59.45996094 C4.59955943 61.89301972 4.66776962 64.32577724 4.75439453 66.7578125 C4.87594851 70.25856722 4.93245222 73.7553305 4.9765625 77.2578125 C5.02817535 78.34240753 5.07978821 79.42700256 5.13296509 80.54446411 C5.1352719 83.66152098 5.02597452 86.0533966 4 89 C-6.61571921 99.04405397 -23.4335366 99.48122605 -37.18359375 99.28515625 C-43.54106338 99.03645634 -49.13728249 97.41752863 -55 95 C-55.7321875 94.72285156 -56.464375 94.44570313 -57.21875 94.16015625 C-67.85720109 89.57971203 -76.85365202 79.50135403 -81.28125 68.9453125 C-87.20298163 51.98378118 -86.4279897 34.45123699 -79.75 17.90234375 C-73.71282415 5.70793457 -63.52629679 -2.87235568 -50.8125 -7.25 C-33.28372802 -12.85553128 -15.18368136 -10.71789273 0 0 Z " fill="#020202" transform="translate(394,838)"/>
<path d="M0 0 C6.93 0 13.86 0 21 0 C21.0093457 2.03260986 21.01869141 4.06521973 21.02832031 6.15942383 C21.06225131 12.91296801 21.11788844 19.6662118 21.18390274 26.41951466 C21.22323081 30.50975341 21.25549047 34.59978161 21.27099609 38.69018555 C21.28626036 42.64566735 21.32087564 46.60056971 21.36830902 50.55579185 C21.38302303 52.05662658 21.39103522 53.55754409 21.39188385 55.0584507 C21.39066865 69.18634213 21.39066865 69.18634213 27.34063721 81.70271301 C32.15950383 86.15464437 38.39405575 87.50419428 44.81640625 87.31640625 C50.32307018 86.51848178 55.3454347 84.52729105 59.4375 80.75 C64.43775472 71.94955169 64.4713629 63.78346198 64.51171875 53.90625 C64.52858578 52.34825239 64.54673872 50.79026821 64.56611633 49.2322998 C64.61340308 45.15535686 64.64334971 41.07846844 64.66955566 37.00134277 C64.69946951 32.83151488 64.74596235 28.66187443 64.79101562 24.4921875 C64.8768059 16.32820207 64.94272378 8.16423532 65 0 C71.93 0 78.86 0 86 0 C86.06809495 9.04999311 86.12299874 18.09981279 86.15543652 27.15000534 C86.17101422 31.35351927 86.1921059 35.55684706 86.22631836 39.76025391 C86.25919645 43.82570444 86.27691219 47.89097725 86.28463173 51.9565506 C86.29012469 53.49850507 86.30084923 55.04045113 86.31719017 56.5823288 C86.45922223 70.55467485 85.27496835 85.45463775 75 96 C62.2053817 106.22203491 49.00003248 108.30402219 33 107 C22.88188676 105.03912534 13.72734577 100.03966018 7.27734375 91.91015625 C-0.23012505 80.68339098 -0.28479958 68.35683619 -0.1953125 55.37109375 C-0.19157605 53.7697009 -0.18873207 52.16830575 -0.18673706 50.56690979 C-0.17915029 46.37972552 -0.15954517 42.19268299 -0.1373291 38.0055542 C-0.11676311 33.72182125 -0.10771249 29.4380651 -0.09765625 25.15429688 C-0.07629392 16.76945939 -0.04115299 8.38476373 0 0 Z " fill="#020202" transform="translate(418,830)"/>
<path d="M0 0 C6.93 0 13.86 0 21 0 C21.0093457 2.09843262 21.01869141 4.19686523 21.02832031 6.35888672 C21.06222129 13.32397663 21.1178423 20.28877435 21.18390274 27.25362968 C21.22326379 31.47281227 21.25550756 35.6917897 21.27099609 39.91113281 C21.28623826 43.98979591 21.32081568 48.06789458 21.36830902 52.14630508 C21.38304545 53.6954162 21.39103653 55.24460794 21.39188385 56.79378891 C21.37114814 71.26207116 21.37114814 71.26207116 28.375 83.5 C34.41368395 86.95067654 40.12681937 87.87720774 47 87 C50.15583048 85.92701764 53.03568016 84.50943894 56 83 C56.99 82.67 57.98 82.34 59 82 C60.18028284 79.84902067 60.18028284 79.84902067 61 77 C61.3407959 75.94683594 61.6815918 74.89367187 62.03271484 73.80859375 C63.68991353 67.06031984 63.36063763 60.03279064 63.4140625 53.125 C63.43279795 51.58942654 63.45237309 50.05386313 63.4727478 48.51831055 C63.52382426 44.50056914 63.56358007 40.48279445 63.60089111 36.46490479 C63.64108533 32.35542736 63.69210691 28.24608548 63.7421875 24.13671875 C63.83865646 16.09123212 63.92215075 8.04568836 64 0 C70.93 0 77.86 0 85 0 C85.06808815 9.18037703 85.1229949 18.36058319 85.15543652 27.54115677 C85.17101587 31.80520344 85.19211068 36.06906667 85.22631836 40.33300781 C85.25919041 44.45681278 85.27691096 48.58044259 85.28463173 52.70436859 C85.29012575 54.26865135 85.30085244 55.83292578 85.31719017 57.39713287 C85.4580307 71.45533978 84.14727731 83.71717156 75 95 C66.86325951 103.25955921 55.82797475 107.05837128 44.40014648 107.24169922 C31.2742272 107.28484736 19.78602073 105.63714844 9.95703125 95.99609375 C2.6471717 87.2834893 -0.13286689 76.92992962 -0.11352539 65.73120117 C-0.11367142 65.01846039 -0.11381744 64.3057196 -0.1139679 63.57138062 C-0.11327432 61.2285451 -0.105508 58.88579028 -0.09765625 56.54296875 C-0.0957901 54.91343733 -0.09436713 53.28390535 -0.09336853 51.65437317 C-0.08955888 47.37511636 -0.07974188 43.09589374 -0.06866455 38.81665039 C-0.05841702 34.44613101 -0.05386376 30.07560607 -0.04882812 25.70507812 C-0.03811818 17.13670135 -0.02053399 8.56835887 0 0 Z " fill="#030303" transform="translate(622,830)"/>
<path d="M0 0 C5.94 0 11.88 0 18 0 C21.29997454 3.74868628 22.30063832 5.56184078 24 10 C25.21350036 12.22810472 26.45752446 14.43977173 27.7265625 16.63671875 C29.02780114 18.98603166 30.32740798 21.33617821 31.625 23.6875 C32.92896523 26.04597346 34.23398464 28.40386047 35.5390625 30.76171875 C36.14008789 31.84759277 36.74111328 32.9334668 37.36035156 34.05224609 C39.21363134 37.38406563 41.09494004 40.69757372 43 44 C51.17236617 29.42531932 59.10274917 14.72484521 67 0 C73.27 0 79.54 0 86 0 C86 28.38 86 56.76 86 86 C80.39 86 74.78 86 69 86 C68.67 68.18 68.34 50.36 68 32 C58.69424481 48.27861476 58.69424481 48.27861476 49.42578125 64.578125 C48 67 48 67 47 68 C42.04075886 68.84054935 42.04075886 68.84054935 39 68 C37.54321289 66.46459961 37.54321289 66.46459961 36.22265625 64.33984375 C35.45876587 63.11491211 35.45876587 63.11491211 34.67944336 61.86523438 C31.40098422 56.27198006 28.24366135 50.62124479 25.125 44.9375 C22.77375 40.668125 20.4225 36.39875 18 32 C17.67 49.82 17.34 67.64 17 86 C11.39 86 5.78 86 0 86 C0 57.62 0 29.24 0 0 Z " fill="#030304" transform="translate(633,709)"/>
<path d="M0 0 C5.94 0 11.88 0 18 0 C19.50240234 2.80564453 19.50240234 2.80564453 21.03515625 5.66796875 C22.03145916 7.52825767 23.02781232 9.38851967 24.02416992 11.2487793 C24.70390963 12.51795706 25.38359909 13.78716175 26.06323242 15.05639648 C26.72354877 16.28954093 27.38397991 17.52262391 28.04452515 18.75564575 C28.70536809 19.98964948 29.36570691 21.2239233 30.02554321 22.45846558 C31.68810682 25.5661621 33.3618868 28.66687496 35.05810547 31.75634766 C35.38419296 32.35304764 35.71028046 32.94974762 36.04624939 33.56452942 C36.94380745 35.2052054 37.84567314 36.84352269 38.74780273 38.48168945 C40 41 40 41 40 43 C40.66 43 41.32 43 42 43 C42.26192139 42.30938477 42.52384277 41.61876953 42.79370117 40.90722656 C44.13773615 37.66805058 45.68763571 34.59846655 47.30078125 31.484375 C47.61903366 30.8691095 47.93728607 30.25384399 48.2651825 29.61993408 C48.93732158 28.32173406 49.61058634 27.02411631 50.28491211 25.72705078 C51.30143928 23.77128053 52.31409616 21.81354556 53.32617188 19.85546875 C56.78377462 13.17920198 60.30404794 6.54834059 64 0 C69.94 0 75.88 0 82 0 C82 28.38 82 56.76 82 86 C76.72 86 71.44 86 66 86 C65.67 68.18 65.34 50.36 65 32 C62.999375 35.7125 60.99875 39.425 58.9375 43.25 C57.73601059 45.45401741 56.53323283 47.65733398 55.328125 49.859375 C53.44841677 53.30306739 51.60121453 56.75027613 49.859375 60.265625 C49.30765625 61.33296875 48.7559375 62.4003125 48.1875 63.5 C47.74792969 64.3971875 47.30835938 65.294375 46.85546875 66.21875 C45 68 45 68 43.06880188 68.1739502 C41.04586792 68.1159668 39.02293396 68.0579834 37 68 C36.53625977 67.15816162 36.07251953 66.31632324 35.59472656 65.44897461 C33.85829842 62.29714081 32.12114768 59.14570575 30.38378906 55.99438477 C29.63489686 54.63576788 28.88619528 53.27704591 28.13769531 51.91821289 C27.05585187 49.95430643 25.97330161 47.99079099 24.890625 46.02734375 C24.56128967 45.42913315 24.23195435 44.83092255 23.89263916 44.21458435 C21.63325081 40.11930965 19.32115222 36.06201638 17 32 C16.67 49.82 16.34 67.64 16 86 C10.72 86 5.44 86 0 86 C0 57.62 0 29.24 0 0 Z " fill="#020202" transform="translate(130,709)"/>
<path d="M0 0 C5.61 0 11.22 0 17 0 C20.46377173 3.46377173 22.41481242 5.76525901 24.72851562 9.85058594 C26.78061362 13.31960873 29.11012149 16.59269988 31.40478516 19.90429688 C33.37457135 22.74938087 35.31948413 25.60997224 37.2578125 28.4765625 C40.57130914 33.37130792 43.90261853 38.25337469 47.25 43.125 C47.69134277 43.76920898 48.13268555 44.41341797 48.58740234 45.07714844 C50.6669964 48.10364935 52.79559071 51.06078762 55 54 C55.33 36.18 55.66 18.36 56 0 C61.61 0 67.22 0 73 0 C73 28.38 73 56.76 73 86 C57 86 57 86 52.875 82.484375 C51.37963867 80.2121582 51.37963867 80.2121582 50 77.75 C49.47059814 76.91879639 48.94119629 76.08759277 48.39575195 75.23120117 C46.88388852 72.84596063 45.44187309 70.42788714 44 68 C42.7424029 66.09536068 41.47350246 64.19807659 40.1875 62.3125 C39.59195313 61.405 38.99640625 60.4975 38.3828125 59.5625 C34.86381419 54.25301969 31.19940422 49.04147069 27.5625 43.8125 C26.83893311 42.7706958 26.11536621 41.7288916 25.36987305 40.65551758 C24.692229 39.68251709 24.01458496 38.7095166 23.31640625 37.70703125 C22.70224854 36.8250708 22.08809082 35.94311035 21.45532227 35.03442383 C20.15765503 33.10308668 20.15765503 33.10308668 19 32 C18.67 49.82 18.34 67.64 18 86 C12.06 86 6.12 86 0 86 C0 57.62 0 29.24 0 0 Z " fill="#030303" transform="translate(812,709)"/>
<path d="M0 0 C16 0 16 0 20.45703125 4.25 C21.63272969 6.13211669 22.74958754 8.05196325 23.8125 10 C25.05281235 12.03420369 26.29370153 14.06805578 27.53515625 16.1015625 C28.41518311 17.61218262 28.41518311 17.61218262 29.31298828 19.15332031 C31.61008899 23.02946999 34.15712327 26.69400756 36.75 30.375 C42.17037435 38.24744846 47.58510154 46.12378406 53 54 C53.33 36.18 53.66 18.36 54 0 C59.61 0 65.22 0 71 0 C71 28.38 71 56.76 71 86 C65.72 86 60.44 86 55 86 C51.95177003 82.489917 50.17861616 80.03484232 48.14208984 76.0546875 C45.83286983 71.90026347 42.95074376 68.11015443 40.1875 64.25 C38.97336487 62.52476994 37.76112161 60.79820691 36.55078125 59.0703125 C35.95604004 58.22243164 35.36129883 57.37455078 34.74853516 56.50097656 C32.10602806 52.72132804 29.48670989 48.92597466 26.875 45.125 C26.43824951 44.48981445 26.00149902 43.85462891 25.55151367 43.20019531 C23.00329693 39.48589623 20.49918383 35.74877574 18 32 C17.67 49.82 17.34 67.64 17 86 C11.39 86 5.78 86 0 86 C0 57.62 0 29.24 0 0 Z " fill="#020203" transform="translate(317,709)"/>
<path d="M0 0 C5.21439299 2.98271862 8.56216828 8.84135418 10.24755859 14.50805664 C13.39175882 29.63755731 11.16641734 50.55224457 3.375 63.9375 C-0.34235415 69.44675241 -4.66849871 73.16331972 -11.3125 74.625 C-18.20455754 74.93863174 -24.71216892 73.95278928 -31.5 72.8125 C-32.56669922 72.64685547 -33.63339844 72.48121094 -34.73242188 72.31054688 C-35.76302734 72.13974609 -36.79363281 71.96894531 -37.85546875 71.79296875 C-38.78383545 71.64110107 -39.71220215 71.4892334 -40.66870117 71.33276367 C-44.60900078 70.27791756 -47.44112342 68.49637658 -50.3125 65.625 C-50.4375 62 -50.4375 62 -50.3125 58.625 C-45.26732513 57.00661274 -40.77055299 56.31067177 -35.4375 56.0625 C-31.0554287 56.24939342 -31.0554287 56.24939342 -27.3125 54.625 C-27.27169217 52.62541636 -27.26995644 50.62454746 -27.3125 48.625 C-28.42492065 48.6564209 -28.42492065 48.6564209 -29.55981445 48.68847656 C-32.9147388 48.77154137 -36.26944707 48.82363014 -39.625 48.875 C-40.79224609 48.90851562 -41.95949219 48.94203125 -43.16210938 48.9765625 C-44.28037109 48.98945312 -45.39863281 49.00234375 -46.55078125 49.015625 C-47.58243408 49.03657227 -48.61408691 49.05751953 -49.67700195 49.07910156 C-52.3125 48.625 -52.3125 48.625 -54.15209961 46.74584961 C-55.50793184 44.26781161 -55.65525532 42.74334829 -55.5625 39.9375 C-55.53929687 38.75607422 -55.53929687 38.75607422 -55.515625 37.55078125 C-55.3125 35.625 -55.3125 35.625 -54.3125 34.625 C-52.39221993 34.2557947 -50.46122868 33.94195937 -48.52734375 33.65234375 C-46.77260742 33.38647461 -46.77260742 33.38647461 -44.98242188 33.11523438 C-43.13487305 32.84163086 -43.13487305 32.84163086 -41.25 32.5625 C-40.01443359 32.37623047 -38.77886719 32.18996094 -37.50585938 31.99804688 C-34.44193921 31.53668438 -31.377492 31.0791781 -28.3125 30.625 C-27.31032936 27.04172247 -27.31032936 27.04172247 -28.3125 23.625 C-32.17288683 23.55727392 -35.74334288 23.53743737 -39.5625 24.125 C-44.81612756 24.82548367 -50.02055827 24.70320604 -55.3125 24.625 C-57.1468878 20.9562244 -58.2792605 18.48922691 -58.4375 14.375 C-57.3125 11.625 -57.3125 11.625 -54.546875 10.171875 C-49.00780955 7.97888613 -43.19507519 6.61481324 -37.4375 5.125 C-28.31532069 2.77594267 -28.31532069 2.77594267 -19.33984375 -0.06640625 C-12.96063515 -2.25452145 -6.34349938 -2.55434803 0 0 Z " fill="#FCFDFD" transform="translate(678.3125,539.375)"/>
<path d="M0 0 C1.35442828 0.40949341 2.70924503 0.81770419 4.06445312 1.22460938 C6.04746028 1.82001434 8.02983316 2.41698966 10.00985718 3.02224731 C14.8101305 4.48615828 19.63797707 5.79110736 24.50805664 7.00073242 C26.5625 7.6875 26.5625 7.6875 28.5625 9.6875 C29.03208832 14.66513621 28.7280421 17.75901541 25.5625 21.6875 C22.8828125 22.2109375 22.8828125 22.2109375 19.6875 22.0625 C17.96660156 21.99869141 17.96660156 21.99869141 16.2109375 21.93359375 C11.48384051 21.61474245 6.76276513 21.26551612 2.046875 20.80859375 C1.22703125 20.76863281 0.4071875 20.72867188 -0.4375 20.6875 C-1.79368499 21.81284105 -1.79368499 21.81284105 -1.5 24.75 C-1.479375 25.719375 -1.45875 26.68875 -1.4375 27.6875 C3.54540296 28.66128977 8.51540787 29.59090807 13.5625 30.16015625 C14.57268188 30.27738037 14.57268188 30.27738037 15.60327148 30.39697266 C17.55858667 30.61750935 19.51561401 30.82269872 21.47265625 31.02734375 C24.5625 31.6875 24.5625 31.6875 26.5625 34.6875 C27.22907938 40.79781097 27.22907938 40.79781097 24.90527344 43.89941406 C21.91205345 46.18394337 20.42427964 46.08720079 16.703125 45.859375 C15.03056641 45.77236328 15.03056641 45.77236328 13.32421875 45.68359375 C12.16535156 45.60238281 11.00648438 45.52117188 9.8125 45.4375 C8.63816406 45.37175781 7.46382813 45.30601562 6.25390625 45.23828125 C3.35513809 45.0733107 0.45891737 44.88904502 -2.4375 44.6875 C-2.47991723 47.02044775 -2.47842937 49.35452567 -2.4375 51.6875 C0.00319699 54.12819699 6.33052893 53.15492313 9.6328125 53.30859375 C13.58273282 53.68945088 16.8047616 54.4820956 20.5625 55.6875 C21.65423973 58.87174089 21.77980321 60.23116326 20.3125 63.3125 C16.18965414 66.87313961 11.82024134 67.60760447 6.5625 68.6875 C5.16451172 68.996875 5.16451172 68.996875 3.73828125 69.3125 C-6.14481361 71.25406297 -18.55515968 73.13686683 -27.4375 67.6875 C-37.9475081 59.09264893 -39.13448835 43.30159468 -40.4375 30.6875 C-41.29861718 19.91380512 -41.15168092 9.82116478 -34.0625 1.1875 C-24.46680399 -8.70743809 -11.64864886 -3.60444029 0 0 Z " fill="#FCFDFD" transform="translate(375.4375,542.3125)"/>
<path d="M0 0 C0.74886475 0.00523682 1.49772949 0.01047363 2.26928711 0.01586914 C3.07817383 0.0190918 3.88706055 0.02231445 4.72045898 0.02563477 C5.5705957 0.03401367 6.42073242 0.04239258 7.29663086 0.05102539 C8.15063477 0.05553711 9.00463867 0.06004883 9.88452148 0.06469727 C12.00108749 0.07652166 14.11761771 0.0944577 16.23413086 0.11352539 C19.64195148 8.13794307 22.83441382 16.21591342 25.85131836 24.39477539 C26.27156281 25.52894897 26.69180725 26.66312256 27.12478638 27.83166504 C28.00828012 30.21782526 28.8905787 32.60442831 29.77172852 34.99145508 C31.09586569 38.57759948 32.42445867 42.16206866 33.75366211 45.74633789 C38.71822514 59.15670817 43.55560278 72.60061052 48.23413086 86.11352539 C41.96413086 86.11352539 35.69413086 86.11352539 29.23413086 86.11352539 C28.40913086 83.70040039 27.58413086 81.28727539 26.73413086 78.80102539 C26.4730957 78.04523193 26.21206055 77.28943848 25.94311523 76.51074219 C24.95695388 73.58865216 24.23413086 71.21738133 24.23413086 68.11352539 C13.01413086 68.11352539 1.79413086 68.11352539 -9.76586914 68.11352539 C-10.42586914 71.08352539 -11.08586914 74.05352539 -11.76586914 77.11352539 C-12.67530276 80.15470478 -13.71876391 83.11499677 -14.76586914 86.11352539 C-20.70586914 86.11352539 -26.64586914 86.11352539 -32.76586914 86.11352539 C-31.51756623 80.01814081 -29.92392602 74.31822707 -27.74633789 68.49633789 C-27.45113754 67.69291962 -27.15593719 66.88950134 -26.85179138 66.06173706 C-25.89124941 63.45189476 -24.92251576 60.84518327 -23.95336914 58.23852539 C-23.28349083 56.4248875 -22.61406267 54.61108329 -21.94506836 52.79711914 C-20.57249152 49.07872846 -19.19629089 45.3617087 -17.81713867 41.64575195 C-16.15531428 37.16728103 -14.50145789 32.68593291 -12.85145569 28.20309448 C-11.65132076 24.94327834 -10.44848794 21.68446319 -9.24478149 18.42596436 C-8.67637965 16.88670268 -8.10864879 15.34719305 -7.54159546 13.80743408 C-6.75714787 11.67925871 -5.96909695 9.55245505 -5.17993164 7.42602539 C-4.73601074 6.2259082 -4.29208984 5.02579102 -3.8347168 3.78930664 C-2.3822453 0.1531514 -2.3822453 0.1531514 0 0 Z " fill="#040404" transform="translate(435.765869140625,708.886474609375)"/>
<path d="M0 0 C5.94 0 11.88 0 18 0 C20.71151956 5.97544069 23.19783794 11.97012484 25.46875 18.125 C25.78614136 18.97836945 26.10353271 19.83173889 26.43054199 20.71096802 C27.45671317 23.47286959 28.47854613 26.23635068 29.5 29 C30.20952429 30.91394094 30.91916079 32.82784029 31.62890625 34.74169922 C36.11773507 46.85779123 40.57589251 58.98512826 45 71.125 C45.259021 71.83462891 45.51804199 72.54425781 45.78491211 73.27539062 C46.50431312 75.24802378 47.22139028 77.22148252 47.9375 79.1953125 C48.33839844 80.29891113 48.73929687 81.40250977 49.15234375 82.53955078 C50 85 50 85 50 86 C44.06 86 38.12 86 32 86 C31.01 83.40125 30.02 80.8025 29 78.125 C28.68675781 77.30789551 28.37351562 76.49079102 28.05078125 75.64892578 C26 70.22222222 26 70.22222222 26 68 C14.78 68 3.56 68 -8 68 C-8.33 69.98 -8.66 71.96 -9 74 C-10.22424554 78.04148529 -11.62428454 82.00598737 -13 86 C-18.94 86 -24.88 86 -31 86 C-24.62606397 67.05843175 -17.8660493 48.26813682 -11 29.5 C-10.35772964 27.74351135 -10.35772964 27.74351135 -9.70248413 25.95153809 C-8.46965435 22.58178566 -7.23528707 19.21260234 -6 15.84375 C-5.62639847 14.82400085 -5.25279694 13.80425171 -4.86787415 12.75360107 C-4.34546394 11.33159393 -4.34546394 11.33159393 -3.8125 9.88085938 C-3.50957031 9.05565796 -3.20664063 8.23045654 -2.89453125 7.38024902 C-1.96491386 4.90663964 -0.98140869 2.45352172 0 0 Z " fill="#040404" transform="translate(256,709)"/>
<path d="M0 0 C18.48 0 36.96 0 56 0 C56 4.95 56 9.9 56 15 C43.46 15 30.92 15 18 15 C18 21.6 18 28.2 18 35 C29.55 35 41.1 35 53 35 C53 39.62 53 44.24 53 49 C41.45 49 29.9 49 18 49 C18 56.26 18 63.52 18 71 C30.87 71 43.74 71 57 71 C57 75.95 57 80.9 57 86 C38.19 86 19.38 86 0 86 C0 57.62 0 29.24 0 0 Z " fill="#020202" transform="translate(559,709)"/>
<path d="M0 0 C18.15 0 36.3 0 55 0 C55 4.95 55 9.9 55 15 C42.46 15 29.92 15 17 15 C17 21.6 17 28.2 17 35 C28.22 35 39.44 35 51 35 C51 39.62 51 44.24 51 49 C39.78 49 28.56 49 17 49 C17 56.26 17 63.52 17 71 C29.87 71 42.74 71 56 71 C56 75.95 56 80.9 56 86 C37.52 86 19.04 86 0 86 C0 57.62 0 29.24 0 0 Z " fill="#010101" transform="translate(739,709)"/>
<path d="M0 0 C5.94 0 11.88 0 18 0 C18.06805119 8.30224557 18.1229737 16.60427058 18.15543652 24.90672112 C18.17102498 28.76279014 18.19213675 32.61865678 18.22631836 36.47460938 C18.25915757 40.20289191 18.27690416 43.93098101 18.28463173 47.65939713 C18.29013155 49.07461716 18.30087012 50.48982783 18.31719017 51.90496445 C18.44063785 63.06338621 18.02499412 72.92532396 10.03125 81.30859375 C2.33695668 87.71557261 -7.34531911 88.72139583 -17 88 C-21.38548985 87.18276896 -25.69091201 86.15091698 -30 85 C-30.71645099 81.1526018 -31.115367 77.53715827 -31.0625 73.625 C-31.05347656 72.75101563 -31.04445313 71.87703125 -31.03515625 70.9765625 C-31.02355469 70.32429687 -31.01195312 69.67203125 -31 69 C-30.44054687 69.144375 -29.88109375 69.28875 -29.3046875 69.4375 C-16.97653183 72.33276065 -16.97653183 72.33276065 -5.03125 69.94921875 C-1.22245405 66.1957832 -0.86495791 63.01836185 -0.79467773 57.89794922 C-0.77473251 56.61677216 -0.75478729 55.33559509 -0.73423767 54.01559448 C-0.71725331 52.61196006 -0.70037451 51.20832437 -0.68359375 49.8046875 C-0.6630246 48.37264403 -0.64202814 46.94060663 -0.62062073 45.50857544 C-0.56539597 41.73733437 -0.51598853 37.96603848 -0.46777344 34.19470215 C-0.41756133 30.34719964 -0.36187376 26.49977687 -0.30664062 22.65234375 C-0.1990541 15.1016281 -0.0981162 7.55084574 0 0 Z " fill="#050505" transform="translate(523,709)"/>
<path d="M0 0 C2.8301418 2.8301418 2.98608399 4.67471326 3.15625 8.65234375 C3.09179421 13.07461522 2.42062741 17.24456235 1.5 21.5625 C1.33129395 22.36171875 1.16258789 23.1609375 0.98876953 23.984375 C-1.51942748 35.11676343 -4.62394722 48.43592083 -11 58 C-15.74886018 57.54142706 -17.78168564 55.71096243 -21.08984375 52.37109375 C-21.55685196 51.9031691 -22.02386017 51.43524445 -22.50502014 50.95314026 C-23.4904557 49.96167681 -24.47104005 48.96537094 -25.44702148 47.96459961 C-26.91902421 46.45642974 -28.4060536 44.96454639 -29.89648438 43.47460938 C-35.04339665 38.28815284 -39.8629882 33.03765323 -44 27 C-42.43765625 26.41605469 -42.43765625 26.41605469 -40.84375 25.8203125 C-25.18198842 19.78366316 -11.92284784 11.8723273 0 0 Z " fill="#FCFDFD" transform="translate(566,360)"/>
<path d="M0 0 C0.66 0 1.32 0 2 0 C2.639375 0.66 3.27875 1.32 3.9375 2 C15.21039472 13.49899862 30.82519369 20.28753781 46 25 C38.16087854 36.10542207 27.49321204 49.54494354 16 57 C13.96240234 56.8046875 13.96240234 56.8046875 12 56 C10.63520481 53.30780127 9.60453086 50.83444788 8.625 48 C8.32972412 47.17000488 8.03444824 46.34000977 7.73022461 45.48486328 C5.29367548 38.38026878 3.35389223 31.16612873 1.5625 23.875 C1.30355957 22.8334375 1.04461914 21.791875 0.77783203 20.71875 C-0.84169362 13.80047435 -2.307667 6.92300099 0 0 Z " fill="#FBFCFD" transform="translate(456,361)"/>
<path d="M0 0 C3.63 -0.0825 7.26 -0.165 11 -0.25 C12.12792969 -0.28641602 13.25585938 -0.32283203 14.41796875 -0.36035156 C21.0984142 -0.43337477 25.33218779 0.39857766 31 4 C34.91317582 9.01375652 34.6619424 14.90650283 34 21 C32.71860411 24.77674577 31.77583835 26.40791284 28.625 28.8125 C24.42315484 30.71333471 20.49690712 31.1257479 15.91796875 31.09765625 C15.0777417 31.09515869 14.23751465 31.09266113 13.37182617 31.09008789 C12.32099854 31.08098389 11.2701709 31.07187988 10.1875 31.0625 C5.1446875 31.0315625 5.1446875 31.0315625 0 31 C0 20.77 0 10.54 0 0 Z " fill="#FBFBFB" transform="translate(547,848)"/>
<path d="M0 0 C0.66 0 1.32 0 2 0 C5.63 10.89 9.26 21.78 13 33 C5.08 33 -2.84 33 -11 33 C-7.37 22.11 -3.74 11.22 0 0 Z " fill="#FAFAFA" transform="translate(442,729)"/>
<path d="M0 0 C2.62330608 2.62330608 3.30403665 5.52015322 4.3828125 8.9765625 C4.60194305 9.66181 4.82107361 10.3470575 5.04684448 11.05307007 C5.74534286 13.24192282 6.43525711 15.43337436 7.125 17.625 C7.59709338 19.10955411 8.06974289 20.5939315 8.54296875 22.078125 C9.70283485 25.71644182 10.85105674 29.35814665 12 33 C4.41 33 -3.18 33 -11 33 C-8.74782139 22.86519627 -8.74782139 22.86519627 -7.08984375 18.125 C-6.56487305 16.61873047 -6.56487305 16.61873047 -6.02929688 15.08203125 C-5.66900391 14.06496094 -5.30871094 13.04789063 -4.9375 12 C-4.57333984 10.95199219 -4.20917969 9.90398438 -3.83398438 8.82421875 C-1.1369646 1.1369646 -1.1369646 1.1369646 0 0 Z " fill="#FBFBFB" transform="translate(265,729)"/>
<path d="M0 0 C0 4.62 0 9.24 0 14 C-0.99 13.67 -1.98 13.34 -3 13 C-4.84466442 12.85110253 -6.69357275 12.7520899 -8.54296875 12.68359375 C-9.61611328 12.64169922 -10.68925781 12.59980469 -11.79492188 12.55664062 C-12.91447266 12.51732422 -14.03402344 12.47800781 -15.1875 12.4375 C-16.31865234 12.39431641 -17.44980469 12.35113281 -18.61523438 12.30664062 C-21.41003354 12.20050901 -24.20492162 12.09845615 -27 12 C-26 9 -26 9 -23.82275391 7.83325195 C-22.88351074 7.47191162 -21.94426758 7.11057129 -20.9765625 6.73828125 C-19.44515625 6.14370117 -19.44515625 6.14370117 -17.8828125 5.53710938 C-16.27019531 4.93092773 -16.27019531 4.93092773 -14.625 4.3125 C-13.55765625 3.89677734 -12.4903125 3.48105469 -11.390625 3.05273438 C-3.4304572 0 -3.4304572 0 0 0 Z " fill="#FAFBFD" transform="translate(631,160)"/>
<path d="M0 0 C0.33 0.66 0.66 1.32 1 2 C-1.78999451 5.48749314 -4.25235831 8.50157221 -8 11 C-8.66 10.67 -9.32 10.34 -10 10 C-6.7 6.7 -3.4 3.4 0 0 Z " fill="#084380" transform="translate(570,332)"/>
<path d="M0 0 C-1.41773462 3.54433654 -2.67612238 4.33806119 -6 6 C-7.26804566 8.0335948 -7.26804566 8.0335948 -8 10 C-7.61508669 5.50934475 -5.14531178 0 0 0 Z " fill="#0A437F" transform="translate(617,539)"/>
</svg>
